<?xml version='1.0' encoding='iso-8859-1'?>
<!DOCTYPE svg PUBLIC '-//W3C//DTD SVG 1.1//EN' 'http://www.w3.org/Graphics/SVG/1.1/DTD/svg11.dtd'>
<svg version="1.1" xmlns="http://www.w3.org/2000/svg" viewBox="0 0 462.147 462.147" xmlns:xlink="http://www.w3.org/1999/xlink" enable-background="new 0 0 462.147 462.147">
  <path fill="#29c4a9" d="m376.283,201.715c-0.184,0-0.367,0-0.551,0.002 0.013-0.675 0.02-1.346 0.02-2.013 0-61.205-49.794-110.999-111-110.999-50.566,0-94.007,33.728-107.038,81.592-15.369-8.073-32.455-12.3-49.991-12.3-59.399,0-107.723,48.324-107.723,107.722s48.324,107.723 107.723,107.723h268.561c47.345,0 85.864-38.518 85.864-85.863s-38.52-85.864-85.865-85.864zm-143.837-19.902c0-2.757 2.243-5 5-5s5,2.243 5,5-2.243,5-5,5-5-2.243-5-5zm143.837,176.629h-29.94v-48.042l20.398-20.398c2.2,0.834 4.573,1.312 7.062,1.312 11.028,0 20-8.972 20-20s-8.972-20-20-20-20,8.972-20,20c0,3.04 0.702,5.911 1.92,8.494l-22.183,22.182c-1.407,1.406-2.197,3.314-2.197,5.303v51.148h-35.7v-106.592l13.655-13.662c2.058,0.717 4.258,1.127 6.557,1.127 11.028,0 20-8.972 20-20s-8.972-20-20-20-20,8.972-20,20c0,3.223 0.784,6.26 2.145,8.959l-15.161,15.169c-1.406,1.406-2.195,3.313-2.195,5.302v109.698h-35.7v-158.1c7.321-2.974 12.503-10.153 12.503-18.529 0-11.028-8.972-20-20-20s-20,8.972-20,20c0,8.374 5.179,15.551 12.497,18.526v158.102h-35.69v-74.838c0-1.989-0.79-3.897-2.197-5.303l-15.165-15.165c1.361-2.7 2.146-5.738 2.146-8.962 0-11.028-8.972-20-20-20s-20,8.972-20,20 8.972,20 20,20c2.298,0 4.497-0.409 6.554-1.125l13.663,13.662v71.732h-35.7v-39.378c0-1.989-0.79-3.897-2.197-5.303l-22.187-22.187c1.218-2.582 1.92-5.454 1.92-8.493 0-11.028-8.972-20-20-20s-20,8.972-20,20 8.972,20 20,20c2.489,0 4.862-0.478 7.062-1.312l20.402,20.402v36.272h-20.83c-51.13-0.001-92.725-41.596-92.725-92.724s41.595-92.722 92.723-92.722c18.181,0 35.797,5.277 50.943,15.26 2.113,1.392 4.784,1.625 7.107,0.62 2.322-1.005 3.98-3.114 4.411-5.607 7.954-46.103 47.725-79.564 94.568-79.564 52.934,0 96,43.065 96,95.999 0,2.996-0.153,6.113-0.455,9.265-0.215,2.245 0.591,4.466 2.195,6.051 1.604,1.583 3.84,2.362 6.077,2.121 2.61-0.282 5.206-0.425 7.714-0.425 39.074,0 70.864,31.79 70.864,70.864s-31.79,70.861-70.864,70.861zm-7.48-87.129c0-2.757 2.243-5 5-5s5,2.243 5,5-2.243,5-5,5-5-2.243-5-5zm-57.949-52c0-2.757 2.243-5 5-5s5,2.243 5,5-2.243,5-5,5-5-2.243-5-5zm-151.817,39.86c-2.757,0-5-2.243-5-5s2.243-5 5-5 5,2.243 5,5-2.244,5-5,5zm-57.949,28.907c-2.757,0-5-2.243-5-5s2.243-5 5-5 5,2.243 5,5-2.243,5-5,5z"/>
</svg>
