<svg height="512pt" viewBox="-4 0 512 512.00022" width="512pt" xmlns="http://www.w3.org/2000/svg"><path d="m298.636719 145.03125c-9.421875-.003906-17.0625 7.632812-17.066407 17.058594 0 9.421875 7.636719 17.0625 17.058594 17.0625 9.421875.003906 17.0625-7.632813 17.066406-17.058594 0-4.523438-1.796874-8.863281-4.996093-12.066406-3.195313-3.203125-7.535157-5.003906-12.0625-4.996094zm0 0" fill="#bddbff"/><path d="m370.382812 114.402344c3.242188-3.160156 5.058594-7.503906 5.035157-12.027344 0-9.425781-7.640625-17.0625-17.0625-17.0625-9.425781 0-17.0625 7.636719-17.0625 17.0625-.03125 9.394531 7.5625 17.03125 16.957031 17.0625 4.554688.011719 8.925781-1.800781 12.132812-5.035156zm0 0" fill="#bddbff"/><path d="m477.789062 85.3125c9.425782 0 17.066407-7.636719 17.066407-17.058594.003906-9.425781-7.636719-17.066406-17.058594-17.066406-9.421875-.003906-17.0625 7.636719-17.066406 17.058594 0 4.527344 1.796875 8.867187 4.996093 12.066406 3.195313 3.203125 7.539063 5.003906 12.0625 5zm0 0" fill="#bddbff"/><path d="m401.011719 162.09375c9.410156-.03125 17.03125-7.652344 17.0625-17.0625 0-9.425781-7.640625-17.0625-17.0625-17.0625-9.425781 0-17.0625 7.636719-17.0625 17.0625.027343 9.410156 7.648437 17.03125 17.0625 17.0625zm0 0" fill="#bddbff"/><path d="m221.855469 281.527344c-25.59375 0-93.839844 17.0625-110.902344 17.0625-15.195313 0-77.585937-13.496094-91.113281-16.464844-32.804688 83.292969 8.128906 177.410156 91.421875 210.210938 83.292969 32.804687 177.410156-8.125 210.210937-91.421876 12.847656-32.617187 14.773438-68.519531 5.488282-102.324218-22.863282-.042969-105.105469-17.0625-105.105469-17.0625zm-119.433594 119.4375c-9.425781 0-17.0625-7.640625-17.0625-17.0625 0-9.425782 7.636719-17.0625 17.0625-17.0625 9.421875 0 17.0625 7.636718 17.0625 17.0625-.003906 9.421875-7.640625 17.0625-17.0625 17.0625zm136.496094 25.59375c-14.132813 0-25.59375-11.460938-25.59375-25.59375 0-14.136719 11.460937-25.59375 25.59375-25.59375 14.136719 0 25.59375 11.457031 25.59375 25.59375 0 14.132812-11.457031 25.59375-25.59375 25.59375zm0 0" fill="#bddbff"/><g fill="#507ce8"><path d="m230.386719 181.5v-130.3125c9.425781 0 17.0625-7.640625 17.0625-17.0625v-17.0625c0-9.421875-7.636719-17.0625-17.0625-17.0625h-119.433594c-9.425781 0-17.0625 7.640625-17.0625 17.0625v17.0625c0 9.421875 7.636719 17.0625 17.0625 17.0625v130.3125c-88.273437 32.980469-133.097656 131.277344-100.113281 219.550781 32.980468 88.269531 131.277344 133.09375 219.546875 100.109375 88.273437-32.980468 133.09375-131.273437 100.113281-219.546875-17.296875-46.296875-53.816406-82.816406-100.113281-100.113281zm-119.433594-164.4375h119.433594v17.0625h-119.433594zm11.226563 178.566406c3.484374-1.160156 5.835937-4.421875 5.832031-8.097656v-136.34375h85.3125v136.34375c0 3.671875 2.351562 6.933594 5.835937 8.097656 44.015625 14.632813 79.039063 48.410156 95.257813 91.871094-13.238281-.421875-26.386719-2.339844-39.191407-5.714844-17.371093-4.550781-35.28125-6.703125-53.234374-6.390625-17.96875-.3125-35.894532 1.839844-53.277344 6.390625-16.078125 4.230469-32.667969 6.21875-49.292969 5.910156-16.625.3125-33.210937-1.675781-49.292969-5.910156-12.527344-3.269531-25.351562-5.269531-38.277344-5.972656 17.867188-37.964844 50.511719-66.945312 90.328126-80.183594zm48.488281 299.175782c-84.808594-.003907-153.554688-68.761719-153.546875-153.570313 0-16.546875 2.675781-32.984375 7.921875-48.675781 13.882812.296875 27.679687 2.242187 41.101562 5.792968 17.386719 4.550782 35.3125 6.699219 53.277344 6.390626 17.964844.308593 35.886719-1.839844 53.269531-6.382813 16.082032-4.242187 32.671875-6.234375 49.300782-5.917969 16.613281-.3125 33.1875 1.675782 49.25 5.910156 15.863281 4.140626 32.183593 6.265626 48.578124 6.320313 20.199219 82.371094-30.199218 165.519531-112.570312 185.714844-11.972656 2.9375-24.253906 4.421875-36.582031 4.417969zm0 0"/><path d="m102.421875 358.308594c-14.136719 0-25.59375 11.457031-25.59375 25.59375 0 14.132812 11.457031 25.59375 25.59375 25.59375 14.132813 0 25.59375-11.460938 25.59375-25.59375 0-14.136719-11.460937-25.59375-25.59375-25.59375zm0 34.125c-4.714844 0-8.53125-3.820313-8.53125-8.53125 0-4.710938 3.816406-8.53125 8.53125-8.53125 4.710937 0 8.53125 3.820312 8.53125 8.53125 0 4.710937-3.820313 8.53125-8.53125 8.53125zm0 0"/><path d="m238.917969 366.839844c-18.847657 0-34.125 15.277344-34.125 34.125 0 18.84375 15.277343 34.125 34.125 34.125 18.847656 0 34.125-15.277344 34.125-34.125s-15.277344-34.125-34.125-34.125zm0 51.1875c-9.421875 0-17.0625-7.640625-17.0625-17.0625 0-9.425782 7.640625-17.0625 17.0625-17.0625s17.0625 7.636718 17.0625 17.0625c0 9.421875-7.640625 17.0625-17.0625 17.0625zm0 0"/><path d="m136.542969 230.339844h17.0625v17.0625h-17.0625zm0 0"/><path d="m153.605469 213.277344h17.0625v17.0625h-17.0625zm0 0"/><path d="m187.730469 179.152344h17.0625v17.0625h-17.0625zm0 0"/><path d="m170.667969 153.558594h17.0625v17.0625h-17.0625zm0 0"/><path d="m477.789062 42.65625c-14.132812 0-25.59375 11.457031-25.59375 25.59375.015626 3.800781.890626 7.546875 2.5625 10.960938l-42.894531 42.894531c-6.925781-3.050781-14.8125-3.050781-21.738281 0l-8.738281-8.761719c1.667969-3.417969 2.542969-7.167969 2.5625-10.96875.09375-14.136719-11.285157-25.671875-25.417969-25.769531-14.136719-.097657-25.671875 11.285156-25.769531 25.417969-.027344 3.921874.847656 7.796874 2.558593 11.328124l-25.722656 25.707032c-3.414062-1.671875-7.160156-2.546875-10.960937-2.5625-14.136719 0-25.59375 11.460937-25.59375 25.59375 0 14.136718 11.457031 25.59375 25.59375 25.59375 14.132812 0 25.59375-11.457032 25.59375-25.59375-.015625-3.800782-.890625-7.546875-2.558594-10.960938l25.710937-25.722656c6.921876 3.40625 15.03125 3.40625 21.949219 0l8.644531 8.652344c-1.667968 3.417968-2.542968 7.167968-2.558593 10.96875-.097657 14.136718 11.28125 25.671875 25.414062 25.769531 14.136719.09375 25.671875-11.285156 25.769531-25.417969.027344-3.921875-.847656-7.800781-2.558593-11.332031l42.785156-42.765625c3.414063 1.671875 7.160156 2.546875 10.960937 2.558594 14.136719 0 25.59375-11.457032 25.59375-25.589844 0-14.136719-11.457031-25.59375-25.59375-25.59375zm-179.152343 127.964844c-4.710938 0-8.53125-3.816406-8.53125-8.527344 0-4.714844 3.820312-8.53125 8.53125-8.53125 4.710937 0 8.53125 3.816406 8.53125 8.53125 0 4.710938-3.820313 8.527344-8.53125 8.527344zm53.636719-62.328125c-1.582032-1.558594-2.46875-3.695313-2.449219-5.917969 0-4.710938 3.816406-8.53125 8.53125-8.53125 4.710937 0 8.53125 3.820312 8.53125 8.53125 0 2.296875-.941407 4.496094-2.613281 6.074219-3.34375 3.269531-8.707032 3.214843-11.980469-.128907-.003907-.007812-.011719-.019531-.019531-.027343zm48.738281 45.265625c-4.714844 0-8.53125-3.816406-8.53125-8.527344-.003907-2.300781.941406-4.5 2.617187-6.074219 1.550782-1.597656 3.6875-2.484375 5.914063-2.460937 2.300781-.007813 4.503906.9375 6.082031 2.613281 1.582031 1.5625 2.464844 3.695313 2.449219 5.917969 0 4.714844-3.820313 8.53125-8.53125 8.53125zm76.777343-76.777344c-4.710937 0-8.53125-3.820312-8.53125-8.53125s3.820313-8.53125 8.53125-8.53125c4.710938 0 8.53125 3.820312 8.53125 8.53125s-3.820312 8.53125-8.53125 8.53125zm0 0"/></g></svg>