<svg xmlns="http://www.w3.org/2000/svg" xmlns:xlink="http://www.w3.org/1999/xlink" viewBox="0 0 549.57 59.63"><defs><style>.cls-1{fill:#444444}.cls-2{fill:#444444;}.cls-3{fill:#444444;}.cls-4{fill:#444444;}.cls-5{fill:#444444;}.cls-6{fill:#444444;}.cls-7{fill:#444444;}.cls-8{fill:#444444;}.cls-9{fill:#444444;}.cls-10{fill:#444444;}.cls-11{fill:#444444;}.cls-12{fill:#444444;}.cls-13{fill:#444444;}</style></defs><title>themesforapp-color-logo</title><g id="Layer_2" data-name="Layer 2"><g id="Layer_1-2" data-name="Layer 1"><g id="_7df8804b-134a-0dc6-7acb-b01234e725da" data-name="7df8804b-134a-0dc6-7acb-b01234e725da"><path class="cls-1" d="M65.19,37V3a3,3,0,0,0-3-3H3A3,3,0,0,0,0,3V37ZM54,5.88a1.12,1.12,0,0,1,1.57,0l3.71,3.7a1.12,1.12,0,0,1-1.58,1.58L54,7.45A1.12,1.12,0,0,1,54,5.88Zm-7.41,0a1.12,1.12,0,0,1,1.57,0L59.31,17a1.11,1.11,0,0,1-1.58,1.57L46.62,7.45A1.12,1.12,0,0,1,46.62,5.88ZM0,39.26v4.45a3,3,0,0,0,3,3H24.07v4.44a6.18,6.18,0,0,1-.84,2.78l-1.65,2.47a2,2,0,0,0,1.75,3.27H41.85a2,2,0,0,0,1.75-3.27L42,53.89a6.18,6.18,0,0,1-.84-2.78V46.67H62.22a3,3,0,0,0,3-3V39.26Zm32.59,4.45a1.86,1.86,0,1,1,1.86-1.86A1.85,1.85,0,0,1,32.59,43.71Z"/></g><path class="cls-2" d="M105.35,10.93h-13V5.4h32.26v5.53h-13V47.34h-6.29Z"/><path class="cls-3" d="M151.5,27.78c0-5-2.57-6.54-6.47-6.54a10.88,10.88,0,0,0-8.37,4.4v21.7H131V5.4h5.65V21.24a14.62,14.62,0,0,1,10.76-5c6.47,0,9.74,3.27,9.74,9.69V47.34H151.5Z"/><path class="cls-4" d="M179.55,16.21c9.12,0,14.78,7.11,14.78,16.41V34h-24a10,10,0,0,0,10.31,9.43,12.92,12.92,0,0,0,9-3.58l2.64,3.71a17.07,17.07,0,0,1-12.19,4.52c-9.06,0-15.72-6.41-15.72-16C164.34,23.32,170.69,16.21,179.55,16.21Zm-9.3,13.71H188.8c-.13-4-2.83-9-9.25-9C173.45,20.87,170.56,25.77,170.25,29.92Z"/><path class="cls-5" d="M238.35,27.09c0-3.52-1.57-5.85-5.28-5.85a9.8,9.8,0,0,0-7.55,4.34V47.34h-5.66V27.09c0-3.52-1.51-5.85-5.34-5.85-3,0-5.91,2.2-7.42,4.4v21.7h-5.66V17h5.66v4.27a13.15,13.15,0,0,1,9.81-5c4.59,0,7.29,2.39,8.23,5.66a12.76,12.76,0,0,1,10.25-5.66c5.6,0,8.62,3.08,8.62,9.18v22h-5.66Z"/><path class="cls-6" d="M266.34,16.21c9.11,0,14.77,7.11,14.77,16.41V34h-24a10,10,0,0,0,10.31,9.43,13,13,0,0,0,9-3.58L279,43.57a17.11,17.11,0,0,1-12.2,4.52c-9.06,0-15.72-6.41-15.72-16C251.12,23.32,257.47,16.21,266.34,16.21ZM257,29.92h18.55c-.13-4-2.83-9-9.24-9C260.24,20.87,257.34,25.77,257,29.92Z"/><path class="cls-7" d="M288.28,39.23a14.74,14.74,0,0,0,10.19,4.34c4.28,0,6.54-1.77,6.54-4.34,0-3-3.46-4-7.36-4.91-5.15-1.19-11.19-2.58-11.19-9.12,0-4.84,4.15-9,11.57-9a16.27,16.27,0,0,1,11.57,4.34l-2.51,4a11.86,11.86,0,0,0-9-3.71c-3.83,0-6.22,1.51-6.22,4,0,2.64,3.27,3.53,7,4.41,5.28,1.19,11.57,2.64,11.57,9.62,0,5.22-4.28,9.3-12.26,9.3-5.09,0-9.56-1.57-12.64-4.71Z"/><path class="cls-8" d="M334,5.4h28.17v5.53H340.29V23.19h21.44v5.54H340.29V47.34H334Z"/><path class="cls-9" d="M367,32.12c0-8.74,5.91-15.91,15.35-15.91s15.34,7.17,15.34,15.91-5.85,16-15.34,16S367,40.92,367,32.12Zm24.78,0c0-5.72-3.33-10.88-9.43-10.88s-9.44,5.16-9.44,10.88,3.4,10.94,9.44,10.94S391.73,37.91,391.73,32.12Z"/><path class="cls-10" d="M404.81,17h5.66v4.65a12.9,12.9,0,0,1,9.93-5.35V22a8.55,8.55,0,0,0-1.94-.19c-2.83,0-6.67,2.14-8,4.4V47.34h-5.66Z"/><path class="cls-11" d="M469,38.66H448.39L445,47.34h-6.91L454.74,5.4h7.86l16.66,41.94h-6.91Zm-18.74-5.6h16.92l-8.49-22.19Z"/><path class="cls-12" d="M484.17,58.91V17h5.66v4.34a12.38,12.38,0,0,1,9.94-5.1c7.92,0,13.52,6,13.52,15.91s-5.6,16-13.52,16a12.11,12.11,0,0,1-9.94-5.15v16Zm14.09-37.67a10.39,10.39,0,0,0-8.43,4.47V38.6a10.57,10.57,0,0,0,8.43,4.46c5.66,0,9.11-4.59,9.11-10.94S503.92,21.24,498.26,21.24Z"/><path class="cls-13" d="M520.46,58.91V17h5.66v4.34a12.36,12.36,0,0,1,9.93-5.1c7.92,0,13.52,6,13.52,15.91s-5.6,16-13.52,16a12.11,12.11,0,0,1-9.93-5.15v16Zm14.08-37.67a10.37,10.37,0,0,0-8.42,4.47V38.6a10.55,10.55,0,0,0,8.42,4.46c5.66,0,9.12-4.59,9.12-10.94S540.2,21.24,534.54,21.24Z"/></g></g></svg>