<svg xmlns="http://www.w3.org/2000/svg" xmlns:xlink="http://www.w3.org/1999/xlink" viewBox="0 0 65.19 59.63"><defs><style>.cls-1{fill:url(#linear-gradient);}</style><linearGradient id="linear-gradient" x1="-136.16" y1="232.68" x2="-135.86" y2="232.68" gradientTransform="matrix(191.41, 81.65, 89.26, -175.1, 5289.9, 51869.96)" gradientUnits="userSpaceOnUse"><stop offset="0" stop-color="#b94b9c"/><stop offset="1" stop-color="#41c5e7"/></linearGradient></defs><title>themesforapp-color-icon</title><g id="Layer_2" data-name="Layer 2"><g id="Layer_1-2" data-name="Layer 1"><g id="_7df8804b-134a-0dc6-7acb-b01234e725da" data-name="7df8804b-134a-0dc6-7acb-b01234e725da"><path class="cls-1" d="M65.19,37V3a3,3,0,0,0-3-3H3A3,3,0,0,0,0,3V37ZM54,5.88a1.12,1.12,0,0,1,1.57,0l3.71,3.7a1.12,1.12,0,0,1-1.58,1.58L54,7.45A1.12,1.12,0,0,1,54,5.88Zm-7.41,0a1.12,1.12,0,0,1,1.57,0L59.31,17a1.11,1.11,0,0,1-1.58,1.57L46.62,7.45A1.12,1.12,0,0,1,46.62,5.88ZM0,39.26v4.45a3,3,0,0,0,3,3H24.07v4.44a6.18,6.18,0,0,1-.84,2.78l-1.65,2.47a2,2,0,0,0,1.75,3.27H41.85a2,2,0,0,0,1.75-3.27L42,53.89a6.18,6.18,0,0,1-.84-2.78V46.67H62.22a3,3,0,0,0,3-3V39.26Zm32.59,4.45a1.86,1.86,0,1,1,1.86-1.86A1.85,1.85,0,0,1,32.59,43.71Z"/></g></g></g></svg>