<?xml version="1.0" encoding="iso-8859-1"?>
<!-- Generator: Adobe Illustrator 19.1.0, SVG Export Plug-In . SVG Version: 6.00 Build 0)  -->
<svg version="1.1" id="Capa_1" xmlns="http://www.w3.org/2000/svg" xmlns:xlink="http://www.w3.org/1999/xlink" x="0px" y="0px"
	 viewBox="0 0 68.556 68.556" style="enable-background:new 0 0 68.556 68.556;" xml:space="preserve">
<g>
	<g>
		<path d="M19.567,68.24c0.332,0.213,0.707,0.316,1.079,0.316c0.575,0,1.144-0.248,1.536-0.718l31.715-37.967
			c0.498-0.596,0.605-1.367,0.276-2.07c-0.329-0.702-1.035-1.092-1.811-1.092H39.735L51.547,2.928
			c0.444-0.893,0.164-2.005-0.657-2.57c-0.824-0.565-1.935-0.453-2.607,0.282L14.72,37.246c-0.536,0.585-0.676,1.486-0.356,2.212
			c0.319,0.727,1.038,1.251,1.831,1.251H30.83L18.842,65.755C18.408,66.664,18.718,67.695,19.567,68.24z M35.805,39.451
			c0.296-0.619,0.253-1.288-0.113-1.868c-0.366-0.582-1.005-0.874-1.691-0.874H20.742l20.896-22.857l-6.924,13.876
			c-0.309,0.62-0.275,1.4,0.09,1.989c0.364,0.589,1.008,0.992,1.7,0.992h11.581L29.298,53.141L35.805,39.451z"/>
	</g>
</g>
<g>
</g>
<g>
</g>
<g>
</g>
<g>
</g>
<g>
</g>
<g>
</g>
<g>
</g>
<g>
</g>
<g>
</g>
<g>
</g>
<g>
</g>
<g>
</g>
<g>
</g>
<g>
</g>
<g>
</g>
</svg>
