<svg xmlns="http://www.w3.org/2000/svg" viewBox="0 0 475.26 437.66"><defs><style>.cls-1{fill:#edf7ff;}</style></defs><title>patch-8</title><g id="Layer_2" data-name="Layer 2"><g id="Layer_2-2" data-name="Layer 2"><path class="cls-1" d="M400.6,34c14.14,13.13,62.89,61.54,72.87,139.54,8.15,63.67-13.59,115.48-24.67,137.34-.89,1.75-1.65,3.19-2.16,4.16l-37.42,50.09c-5.46,6.31-11.35,12.72-17.72,19.15a393,393,0,0,1-56.36,47.18c-1.69.46-4.23,1.13-7.34,1.83-49.24,11.21-92-1.14-129.33-12.41-30.75-9.28-50.29-19.09-54.62-21.19-12.57-6.09-26.34-14.45-46.88-29.31-47-34-74.75-91.5-74.75-91.5s-17-35-21.75-76.75,28-125.25,28-125.25A107.13,107.13,0,0,1,42.89,56.2a111.11,111.11,0,0,1,44.58-30A424.65,424.65,0,0,1,400.6,34Z"/></g></g></svg>