<svg xmlns="http://www.w3.org/2000/svg" viewBox="0 0 3674.28 1395.12"><defs><style>.cls-1{fill:#edf7ff;}.cls-2{fill:#edf7ff;}</style></defs><title>patch-3</title><g id="Layer_2" data-name="Layer 2"><g id="Layer_2-2" data-name="Layer 2"><path class="cls-1" d="M3642.18,348.63a617.88,617.88,0,0,1,4.4-74.63c17.66-141.25-33-196.75-33-196.75-134.32-149.45-338-42.56-374.89-5.67s-200.85,84.71-200.85,84.71c-221.13,31.11-338.56,117.83-338.56,117.83-394.69,346.17-153.11,655-74.81,737.21,27.27,33.16,59.94,66.86,98.78,100.92,0,0,117.43,86.73,338.56,117.84,0,0,164,47.82,200.84,84.71s240.58,143.77,374.89-5.68c0,0,50.66-55.49,33-196.74a616,616,0,0,1-4.39-74.38Z"/><path class="cls-2" d="M969.38,783.47h-.5a4.11,4.11,0,0,0-.52-1.51c-32-54.66-21-146.33-21-146.33s40-65.33-2.67-160.67S829.36,360.27,829.36,360.27l-106-36.67s-78-29.33-62.67-108-9.33-106-9.33-106-7.34-35.33-118-77.33-200,8-200,8-16,10-145.34,62C91.73,141,26.87,153.83,0,157.86v1094.5c25.64,3.61,92.6,16,193.52,56,131.42,52,147.67,62,147.67,62s90.78,50,203.22,8S664.32,1301,664.32,1301s25.06-27.33,9.48-106,63.67-108,63.67-108l107.71-36.66S919,1031,962.37,935.65C996.54,860.47,978.54,804,969.38,783.47Z"/></g></g></svg>