<svg height="511pt" viewBox="-76 1 511 511.99928" width="511pt" xmlns="http://www.w3.org/2000/svg"><path d="m119.964844 43.289062c3.261718 1.273438 5.414062 4.410157 5.429687 7.910157v17.066406c0 4.714844 3.820313 8.535156 8.53125 8.535156h91.546875c4.710938 0 8.53125-3.820312 8.53125-8.535156v-17.066406c.015625-3.5 2.167969-6.636719 5.429688-7.910157v-.621093h-119.46875zm0 0" fill="#bddbff"/><path d="m133.925781 76.800781c-4.710937 0-8.53125-3.820312-8.53125-8.535156v-17.066406c-.015625-3.5-2.167969-6.636719-5.429687-7.910157v33.511719zm0 0" fill="#bddbff"/><path d="m234.003906 51.199219v17.066406c0 4.714844-3.820312 8.535156-8.53125 8.535156h13.960938v-33.511719c-3.261719 1.273438-5.414063 4.410157-5.429688 7.910157zm0 0" fill="#bddbff"/><path d="m43.167969 145.066406v68.265625h68.265625v-68.265625zm0 0" fill="#bddbff"/><path d="m43.167969 332.800781h68.265625v-68.269531h-68.265625zm0 0" fill="#bddbff"/><path d="m43.167969 452.265625h68.265625v-68.265625h-68.265625zm0 0" fill="#bddbff"/><g fill="#507ce8"><path d="m341.832031 34.132812h-128c0-18.851562-15.28125-34.132812-34.132812-34.132812-18.851563 0-34.132813 15.28125-34.132813 34.132812h-128c-9.425781 0-17.066406 7.640626-17.066406 17.066407v443.734375c0 9.425781 7.640625 17.066406 17.066406 17.066406h324.265625c9.425781 0 17.066407-7.640625 17.066407-17.066406v-443.734375c0-9.425781-7.640626-17.066407-17.066407-17.066407zm-162.132812-17.066406c9.425781 0 17.066406 7.640625 17.066406 17.066406h-34.132813c0-9.425781 7.640626-17.066406 17.066407-17.066406zm45.773437 34.132813v17.066406h-91.546875v-17.066406zm116.359375 443.734375h-324.265625v-443.734375h93.867188v25.601562c0 4.710938 3.820312 8.53125 8.53125 8.53125h119.46875c4.710937 0 8.53125-3.820312 8.53125-8.53125v-25.601562h93.867187zm0 0"/><path d="m154.097656 204.800781h170.667969v17.066407h-170.667969zm0 0"/><path d="m154.097656 170.667969h170.667969v17.066406h-170.667969zm0 0"/><path d="m154.097656 324.265625h170.667969v17.066406h-170.667969zm0 0"/><path d="m154.097656 290.132812h170.667969v17.066407h-170.667969zm0 0"/><path d="m154.097656 443.734375h170.667969v17.066406h-170.667969zm0 0"/><path d="m154.097656 409.601562h170.667969v17.066407h-170.667969zm0 0"/><path d="m119.367188 142.132812c-1.207032-3.347656-4.375-5.585937-7.933594-5.597656h-68.265625c-4.714844 0-8.535157 3.820313-8.535157 8.53125v68.265625c0 4.714844 3.820313 8.535157 8.535157 8.535157h68.265625c4.710937 0 8.53125-3.820313 8.53125-8.535157v-47.667969l31.632812-31.632812-12.0625-12.066406zm-16.46875 62.667969h-51.199219v-51.199219h51.199219v5l-17.066407 17.066407-11.03125-11.035157-12.066406 12.066407 17.066406 17.066406c3.332031 3.332031 8.734375 3.332031 12.066407 0l11.03125-11.03125zm0 0"/><path d="m119.367188 261.597656c-1.207032-3.347656-4.375-5.582031-7.933594-5.597656h-68.265625c-4.714844 0-8.535157 3.820312-8.535157 8.53125v68.269531c0 4.710938 3.820313 8.53125 8.535157 8.53125h68.265625c4.710937 0 8.53125-3.820312 8.53125-8.53125v-47.667969l31.632812-31.632812-12.0625-12.066406zm-16.46875 62.667969h-51.199219v-51.199219h51.199219v5l-17.066407 17.066406-11.03125-11.03125-12.066406 12.066407 17.066406 17.066406c3.332031 3.332031 8.734375 3.332031 12.066407 0l11.03125-11.035156zm0 0"/><path d="m139.535156 360.898438-20.167968 20.164062c-1.207032-3.34375-4.375-5.582031-7.933594-5.597656h-68.265625c-4.714844 0-8.535157 3.824218-8.535157 8.535156v68.265625c0 4.714844 3.820313 8.535156 8.535157 8.535156h68.265625c4.710937 0 8.53125-3.820312 8.53125-8.535156v-47.667969l31.632812-31.632812zm-36.636718 82.835937h-51.199219v-51.203125h51.199219v5.003906l-17.066407 17.066406-11.03125-11.035156-12.066406 12.066406 17.066406 17.066407c3.332031 3.332031 8.734375 3.332031 12.066407 0l11.03125-11.035157zm0 0"/></g></svg>