<?xml version="1.0" encoding="iso-8859-1"?>
<!-- Generator: Adobe Illustrator 19.0.0, SVG Export Plug-In . SVG Version: 6.00 Build 0)  -->
<svg version="1.1" id="Capa_1" xmlns="http://www.w3.org/2000/svg" xmlns:xlink="http://www.w3.org/1999/xlink" x="0px" y="0px"
	 viewBox="0 0 512 512" style="enable-background:new 0 0 512 512;" xml:space="preserve">
<g>
	<path style="fill:#FFFFFF;" d="M323.392,68.267H11.454c-0.341,0-0.65-0.198-0.793-0.508c-0.142-0.31-0.092-0.674,0.13-0.933
		L60.756,8.533H274.09l49.965,58.293c0.222,0.259,0.273,0.623,0.13,0.933C324.043,68.068,323.733,68.267,323.392,68.267z"/>
	<path style="fill:#7FACFA;" d="M501.569,68.267H189.631c-0.341,0-0.65-0.198-0.793-0.508c-0.142-0.31-0.092-0.674,0.13-0.933
		l49.965-58.293h213.333l49.965,58.293c0.222,0.259,0.273,0.623,0.13,0.933C502.22,68.068,501.91,68.267,501.569,68.267
		L501.569,68.267z"/>
	<path style="fill:#bddbff;" d="M468.459,68.267H43.541c-0.341,0-0.65-0.198-0.793-0.508s-0.092-0.674,0.13-0.933L92.844,8.533
		h326.313l49.965,58.293c0.222,0.259,0.273,0.623,0.13,0.933S468.8,68.267,468.459,68.267z"/>
	<path style="fill:#7FACFA;" d="M281.6,68.267h219.214c1.465,0,2.653,1.188,2.653,2.653v82.68h-224.52V70.92
		C278.947,69.455,280.135,68.267,281.6,68.267z"/>
	<path style="fill:#FFFFFF;" d="M11.186,68.267H230.4c1.465,0,2.653,1.188,2.653,2.653v82.68H8.533V70.92
		C8.533,69.455,9.721,68.267,11.186,68.267z"/>
	<path style="fill:#bddbff;" d="M36.786,68.267h438.427c1.465,0,2.653,1.188,2.653,2.653v82.68H34.133V70.92
		C34.133,69.455,35.321,68.267,36.786,68.267z"/>
	<rect x="34.133" y="153.6" style="fill:#FFFFFF;" width="187.733" height="349.867"/>
	<rect x="290.133" y="153.6" style="fill:#bddbff;" width="187.733" height="349.867"/>
	<rect x="59.733" y="153.6" style="fill:#E3E7F2;" width="392.533" height="349.867"/>
	<rect x="162.133" y="204.8" style="fill:#7FACFA;" width="187.733" height="68.267"/>
	<rect x="162.133" y="204.8" style="fill:#bddbff;" width="162.133" height="68.267"/>
	
		<linearGradient id="SVGID_1_" gradientUnits="userSpaceOnUse" x1="-48.6521" y1="651.9759" x2="-47.9378" y2="650.3093" gradientTransform="matrix(238.9333 0 0 -102.4 11795.2676 67061)">
		<stop  offset="0" style="stop-color:#D4E1F4"/>
		<stop  offset="0.1717" style="stop-color:#D4E1F4"/>
		<stop  offset="0.2" style="stop-color:#D4E1F4"/>
		<stop  offset="0.2001" style="stop-color:#DAE4F4"/>
		<stop  offset="0.2007" style="stop-color:#EBEBF4"/>
		<stop  offset="0.2014" style="stop-color:#F6F1F4"/>
		<stop  offset="0.2023" style="stop-color:#FDF4F4"/>
		<stop  offset="0.205" style="stop-color:#FFF5F4"/>
		<stop  offset="0.2522" style="stop-color:#FFF5F4"/>
		<stop  offset="0.26" style="stop-color:#FFF5F4"/>
		<stop  offset="0.26" style="stop-color:#D4E1F4"/>
		<stop  offset="0.3974" style="stop-color:#D4E1F4"/>
		<stop  offset="0.42" style="stop-color:#D4E1F4"/>
		<stop  offset="0.4201" style="stop-color:#DAE4F4"/>
		<stop  offset="0.4207" style="stop-color:#EBEBF4"/>
		<stop  offset="0.4214" style="stop-color:#F6F1F4"/>
		<stop  offset="0.4223" style="stop-color:#FDF4F4"/>
		<stop  offset="0.425" style="stop-color:#FFF5F4"/>
		<stop  offset="0.4894" style="stop-color:#FFF5F4"/>
		<stop  offset="0.5" style="stop-color:#FFF5F4"/>
		<stop  offset="0.5" style="stop-color:#F9F2F4"/>
		<stop  offset="0.5001" style="stop-color:#E8EBF4"/>
		<stop  offset="0.5003" style="stop-color:#DDE5F4"/>
		<stop  offset="0.5005" style="stop-color:#D6E2F4"/>
		<stop  offset="0.501" style="stop-color:#D4E1F4"/>
		<stop  offset="0.7062" style="stop-color:#D4E1F4"/>
		<stop  offset="0.74" style="stop-color:#D4E1F4"/>
		<stop  offset="0.741" style="stop-color:#FFF5F4"/>
		<stop  offset="0.8346" style="stop-color:#FFF5F4"/>
		<stop  offset="0.85" style="stop-color:#FFF5F4"/>
		<stop  offset="0.851" style="stop-color:#D4E1F4"/>
	</linearGradient>
	<polygon style="fill:url(#SVGID_1_);" points="349.867,332.8 136.533,332.8 136.533,435.2 349.867,435.2 375.467,435.2 
		375.467,332.8 	"/>
	<g>
		<path style="fill:#507ce8;" d="M503.467,162.133H8.533c-2.263,0.001-4.434-0.898-6.035-2.499c-1.6-1.6-2.499-3.771-2.499-6.035
			V70.917c0.007-6.175,5.012-11.178,11.187-11.183h489.629c6.174,0.007,11.177,5.01,11.183,11.183V153.6
			c0.001,2.264-0.897,4.435-2.498,6.035C507.901,161.236,505.73,162.135,503.467,162.133L503.467,162.133z M17.067,145.067h477.867
			V76.8H17.067V145.067z"/>
		<path style="fill:#507ce8;" d="M501.567,76.8H10.429c-3.671,0-7.006-2.135-8.543-5.469c-1.537-3.333-0.995-7.256,1.389-10.048
			l49.979-58.3C54.875,1.091,57.242,0.001,59.733,0h392.533c2.491,0,4.857,1.09,6.475,2.983l49.967,58.292
			c2.39,2.789,2.938,6.714,1.403,10.051C508.577,74.663,505.24,76.8,501.567,76.8z M27.083,59.733h457.833l-36.575-42.667H63.659
			L27.083,59.733z"/>
		<path style="fill:#507ce8;" d="M477.867,512H34.133c-2.263,0.001-4.434-0.898-6.035-2.499c-1.6-1.6-2.499-3.771-2.499-6.035V153.6
			c-0.001-2.263,0.898-4.434,2.499-6.035c1.6-1.6,3.771-2.499,6.035-2.499h443.733c2.264-0.001,4.435,0.897,6.035,2.498
			c1.601,1.601,2.499,3.772,2.498,6.035v349.867c0.001,2.264-0.897,4.435-2.498,6.035C482.301,511.103,480.13,512.001,477.867,512z
			 M42.667,494.933h426.667v-332.8H42.667V494.933z"/>
		<path style="fill:#507ce8;" d="M349.867,281.6H162.133c-2.263,0.001-4.434-0.898-6.035-2.499c-1.6-1.6-2.499-3.771-2.499-6.035
			V204.8c-0.001-2.263,0.898-4.434,2.499-6.035s3.771-2.499,6.035-2.499h187.733c2.263-0.001,4.434,0.898,6.035,2.499
			s2.499,3.771,2.499,6.035v68.267c0.001,2.263-0.898,4.434-2.499,6.035C354.301,280.702,352.13,281.601,349.867,281.6z
			 M170.667,264.533h170.667v-51.2H170.667V264.533z"/>
		<path style="fill:#507ce8;" d="M375.467,443.733H136.533c-2.263,0.001-4.434-0.898-6.035-2.499c-1.6-1.6-2.499-3.771-2.499-6.035
			V332.8c-0.001-2.263,0.898-4.434,2.499-6.035c1.6-1.6,3.771-2.499,6.035-2.499h238.933c2.263-0.001,4.434,0.898,6.035,2.499
			c1.6,1.6,2.499,3.771,2.499,6.035v102.4c0.001,2.263-0.898,4.434-2.499,6.035S377.73,443.734,375.467,443.733z M145.067,426.667
			h221.867v-85.333H145.067V426.667z"/>
		<path style="fill:#507ce8;" d="M230.4,409.6h-42.667c-4.713,0-8.533-3.821-8.533-8.533s3.821-8.533,8.533-8.533H230.4
			c4.713,0,8.533,3.82,8.533,8.533S235.113,409.6,230.4,409.6z"/>
		<path style="fill:#507ce8;" d="M324.267,375.467H230.4c-4.713,0-8.533-3.82-8.533-8.533s3.82-8.533,8.533-8.533h93.867
			c4.713,0,8.533,3.82,8.533,8.533S328.98,375.467,324.267,375.467z"/>
		<path style="fill:#507ce8;" d="M187.733,375.467c-1.116-0.013-2.219-0.245-3.246-0.683c-2.141-0.78-3.828-2.467-4.608-4.608
			c-0.436-1.026-0.667-2.127-0.68-3.242c0-4.713,3.821-8.533,8.533-8.533c4.713,0,8.533,3.82,8.533,8.533
			c-0.014,1.115-0.246,2.216-0.683,3.242c-0.435,1.033-1.041,1.985-1.792,2.817C192.164,374.563,189.995,375.449,187.733,375.467z"
			/>
		<path style="fill:#507ce8;" d="M273.067,409.6c-1.116-0.013-2.219-0.245-3.246-0.683c-2.141-0.78-3.828-2.467-4.608-4.608
			c-0.436-1.026-0.667-2.127-0.68-3.242c0-3.049,1.626-5.866,4.267-7.39c2.64-1.524,5.893-1.524,8.533,0
			c2.64,1.524,4.267,4.341,4.267,7.39c-0.014,1.115-0.246,2.216-0.683,3.242c-0.435,1.033-1.041,1.985-1.792,2.817
			C277.497,408.696,275.329,409.582,273.067,409.6L273.067,409.6z"/>
		<path style="fill:#507ce8;" d="M324.267,409.6h-8.533c-4.713,0-8.533-3.821-8.533-8.533s3.821-8.533,8.533-8.533h8.533
			c4.713,0,8.533,3.82,8.533,8.533S328.98,409.6,324.267,409.6z"/>
	</g>
</g>
<g>
</g>
<g>
</g>
<g>
</g>
<g>
</g>
<g>
</g>
<g>
</g>
<g>
</g>
<g>
</g>
<g>
</g>
<g>
</g>
<g>
</g>
<g>
</g>
<g>
</g>
<g>
</g>
<g>
</g>
</svg>
