<svg xmlns="http://www.w3.org/2000/svg" xmlns:xlink="http://www.w3.org/1999/xlink" id="eb784e0d-05db-44e6-8395-40b319063039" data-name="Layer 1" width="1094" height="798.15" viewBox="0 0 1094 798.15"><defs><linearGradient id="b86fccb4-da21-4a09-8d3b-ff994f3aa5aa" x1="639.03" y1="672.43" x2="639.03" y2="50.93" gradientUnits="userSpaceOnUse"><stop offset="0" stop-color="gray" stop-opacity="0.25"/><stop offset="0.54" stop-color="gray" stop-opacity="0.12"/><stop offset="1" stop-color="gray" stop-opacity="0.1"/></linearGradient><linearGradient id="d2adb5db-d5c7-49ab-bfdd-50ec6aa449ae" x1="319.12" y1="309.68" x2="319.12" y2="212.15" xlink:href="#b86fccb4-da21-4a09-8d3b-ff994f3aa5aa"/><linearGradient id="fd1a872a-c2fb-4cd4-906a-a62e176bbce4" x1="332.56" y1="304.74" x2="332.56" y2="246.12" gradientTransform="matrix(-1, 0, 0, 1, 652, 0)" xlink:href="#b86fccb4-da21-4a09-8d3b-ff994f3aa5aa"/><linearGradient id="636ac3f3-8a9d-4cd8-9529-d45e35aeb867" x1="803.65" y1="796.85" x2="803.65" y2="184.5" xlink:href="#b86fccb4-da21-4a09-8d3b-ff994f3aa5aa"/></defs><title>wall post</title><g opacity="1"><path d="M119.37,170.3c10.2,17.75,4.55,40.79-6.53,58S86,259.17,73.72,275.59C49.31,308.35,43,360.08,73.78,387c6.63,5.8,14.83,10.39,18.87,18.21C98.23,416,94.1,429,89.89,440.43l-.35.94C73.63,484.5,97.07,532.3,141,545.83c24.31,7.49,46.25,19.63,62.49,39.26,14.19,17.16,22.39,38.33,31.75,58.53C252.16,680.11,274,715,304.18,741.57s69.56,44.18,109.76,42.73c91.82-3.31,159.43-100,251.16-105.09,6.61-.37,13.65-.12,19.18,3.52,7.8,5.14,10.19,15.23,13.47,24,17.37,46.43,69.67,67.83,116.5,84.09l88,30.58c47.8,16.6,98,33.45,148,25.76s98.82-48.75,96.65-99.31c-1.78-41.53-36.2-78.08-31.69-119.41,3.12-28.56,24.51-52.55,28.09-81.06,3.73-29.67-12.49-58.16-31.16-81.52-53.72-67.24-130.28-111.56-205-154.31-52.63-30.12-105.53-60.36-162.19-82-139.68-53.21-293.2-50.92-442-65.44-25.59-2.5-52.34-5.44-75.79-16.75-18-8.68-32.07-28.75-51.82-33-15.05-3.24-37.31,3.45-50.45,10.76C100.94,138.54,107.54,149.71,119.37,170.3Z" transform="translate(-53 -50.93)" fill="#f9ebd3" style="&#10;"/></g><g opacity="1"><path xmlns="http://www.w3.org/2000/svg" d="M1065.12,110.81V637.54a27.64,27.64,0,0,1-27.64,27.64H240.89a27.64,27.64,0,0,1-27.64-27.64V110.81Z" transform="translate(-53 -50.93)" fill="#fefbf8" style="&#10;"/></g><path d="M421.34,382.3V665.17H240.89c-15.26,0-27.64-12.62-27.64-28.18V382.3Z" transform="translate(-53 -50.93)" fill="#fcdea6"/><rect x="430.12" y="124.37" width="346.82" height="9.75" fill="#dde1ec"/><rect x="430.12" y="193.73" width="209.17" height="9.75" fill="#dde1ec"/><rect x="685.9" y="193.73" width="70.45" height="9.75" fill="#dde1ec"/><rect x="685.9" y="284.77" width="70.45" height="9.75" fill="#dde1ec"/><rect x="685.9" y="375.81" width="70.45" height="9.75" fill="#dde1ec"/><rect x="685.9" y="224.08" width="70.45" height="9.75" fill="#dde1ec"/><rect x="807.28" y="224.08" width="70.45" height="9.75" fill="#dde1ec"/><rect x="685.9" y="254.42" width="70.45" height="9.75" fill="#dde1ec"/><rect x="807.28" y="254.42" width="70.45" height="9.75" fill="#dde1ec"/><rect x="807.28" y="310.78" width="70.45" height="9.75" fill="#dde1ec"/><rect x="807.28" y="341.13" width="70.45" height="9.75" fill="#dde1ec"/><rect x="807.28" y="406.16" width="70.45" height="9.75" fill="#dde1ec"/><rect x="430.12" y="224.08" width="209.17" height="9.75" fill="#dde1ec"/><rect x="430.12" y="254.42" width="209.17" height="9.75" fill="#dde1ec"/><rect x="430.12" y="284.77" width="209.17" height="9.75" fill="#dde1ec"/><rect x="430.12" y="315.12" width="209.17" height="9.75" fill="#dde1ec"/><rect x="430.12" y="345.46" width="209.17" height="9.75" fill="#dde1ec"/><rect x="430.12" y="375.81" width="209.17" height="9.75" fill="#dde1ec"/><rect x="430.12" y="406.16" width="209.17" height="9.75" fill="#dde1ec"/><rect x="160.25" y="59.34" width="208.09" height="277.45" fill="#fcdea6"/><path d="M1065.12,82.63A27.64,27.64,0,0,0,1037.48,55H240.89a27.64,27.64,0,0,0-27.64,27.64v31.43h851.87Z" transform="translate(-53 -50.93)" fill="#ffbe00"/><circle cx="193.85" cy="33.33" r="10.84" fill="#f9ebd3"/><circle cx="229.61" cy="33.33" r="10.84" fill="#f9ebd3"/><circle cx="265.38" cy="33.33" r="10.84" fill="#f9ebd3"/><path d="M378,249a60.41,60.41,0,0,1-13.52,38.17c-.33.41-.66.81-1,1.21h0a1.64,1.64,0,0,0-.18.22,61,61,0,0,1-10.47,9.59l-.5.37c-.69.49-1.39,1-2.1,1.42l-.49.31-1.05.65a5.33,5.33,0,0,1-.48.27,3.21,3.21,0,0,1-.41.25c-1.54.9-3.13,1.73-4.76,2.49-.18.1-.38.18-.57.27s-.41.2-.63.28-.65.29-1,.42a59.06,59.06,0,0,1-10.83,3.4,60.5,60.5,0,0,1-10.75,1.31h-.55l-1.43,0A60.59,60.59,0,0,1,303.11,308l-.87-.21q-3.06-.8-6-1.86c-1.19-.44-2.37-.92-3.52-1.43-.29-.13-.57-.25-.86-.39l-.87-.39-.76-.39h0l-.8-.41-.89-.47-1-.57-.16-.09a60.93,60.93,0,0,1-11.78-8.71c-.3-.29-.61-.57-.9-.88s-.63-.62-.93-.94A60.69,60.69,0,1,1,378,249Z" transform="translate(-53 -50.93)" fill="#fff"/><path d="M360,270.62a17.33,17.33,0,0,1-.59,2.67,2.47,2.47,0,0,1-.13.4c0-.38-.07-.78-.09-1.21h0c-.3-4.45-.56-11.48.34-15.64.85-3.91-5.34-2.72-9.47.78h0a10.89,10.89,0,0,0-2.88,3.61c-.09-.12-.18-.23-.28-.35a10.9,10.9,0,0,0-8.2-4.05,27.91,27.91,0,0,1-17.43-7.64c-.2-.81-.35-1.61-.47-2.42,0-.25-.08-.51-.11-.76a15.07,15.07,0,0,0,4.63-7.81s0-.08,0-.12a15.1,15.1,0,0,0,.38-3.32c0-.46,0-.9-.05-1.34,0-.16,0-.33-.05-.49s0-.38-.08-.56a6.61,6.61,0,0,0,.73-.38,8.38,8.38,0,0,0,3.24-3.67l0-.08a13.83,13.83,0,0,0,.64-1.66,0,0,0,0,0,0,0,20.07,20.07,0,0,0,.83-5c0-.21,0-.42,0-.65,0-1.31-.26-2.95-1.54-3.22-1.69-.36-2.92,2.19-4.63,1.92a2.6,2.6,0,0,1-1.34-.81c-1.16-1.15-1.94-2.63-3.1-3.79a10.6,10.6,0,0,0-6.62-2.81,25,25,0,0,0-7.28.67,12.26,12.26,0,0,0-3.76,1.28,4.48,4.48,0,0,0-2.25,3.09,4.41,4.41,0,0,0,0,.85c0,.42,0,.86,0,1.29a4.8,4.8,0,0,1-.07.55,4.57,4.57,0,0,1-2.31,2.76c-1.06.63-2.24,1.07-3.25,1.79a8.51,8.51,0,0,0-3.13,5,13.22,13.22,0,0,0-.35,3.39,22.43,22.43,0,0,0,.17,3.08,33.06,33.06,0,0,0,2.86,9.92,15.84,15.84,0,0,0,1.42,2.5s0,0,0,0c.14.2.28.38.43.55a15.09,15.09,0,0,0,3.23,2.73l.69.47a2,2,0,0,0,1.71.44,1.82,1.82,0,0,0,.52-.3,4,4,0,0,0,1.25-3.15v-.16a1,1,0,0,1,0,.17,1.64,1.64,0,0,1,0,.23l.1,0a14.8,14.8,0,0,1,0,1.53,5.59,5.59,0,0,1,0,.62c0,.12,0,.24,0,.35l-.16.14h0c-.33.28-.93.77-1.76,1.42h0a52.89,52.89,0,0,1-11.24,6.69,16,16,0,0,0-9.21,10.23,35.89,35.89,0,0,1-4.37,9.47c-.48.7-1.8,6-3.34,11.44.3.33.62.64.93.94s.6.59.9.88a60.93,60.93,0,0,0,11.78,8.71l.16.09,1,.57.89.47c0-.75-.1-1.44-.15-2.09,0-.39-.06-.76-.1-1.12.23-.38.43-.72.62-1,0,.29.07.61.1,1h0c.11,1,.22,2.23.34,3.64q0,.67.1,1.4c0-.49-.05-1-.09-1.4l.76.39.87.39c.28.14.56.26.86.39,1.15.51,2.33,1,3.52,1.43q2.91,1.07,6,1.86l.87.21a60.59,60.59,0,0,0,14.19,1.67l1.43,0h.55A60.5,60.5,0,0,0,330,308.34a59.06,59.06,0,0,0,10.83-3.4q.49-.2,1-.42c.22-.09.42-.18.63-.28s.39-.17.57-.27c-1-3.51-1.54-5.76-1.54-5.76l1.32-3.39.16-.41.4-1.05v0c0,.13.06.26.11.39v0a15.93,15.93,0,0,0,4.7,7.49,5.33,5.33,0,0,0,.48-.27l1.05-.65.49-.31c.72-.47,1.41-.93,2.1-1.42l.5-.37a61,61,0,0,0,10.47-9.59l.18-.22h0c.34-.4.67-.8,1-1.21Zm-8.72,4.56a1.1,1.1,0,0,1,.09.15l-.08-.07Z" transform="translate(-53 -50.93)" fill="url(#d2adb5db-d5c7-49ab-bfdd-50ec6aa449ae)"/><path d="M351.44,273.31v.08l.07.07C351.49,273.4,351.46,273.36,351.44,273.31Zm-61.16,30c-.1-1.4-.2-2.66-.29-3.74-.07-.76-.14-1.44-.2-2a.18.18,0,0,1,0-.08c0-.14,0-.27,0-.4a23,23,0,0,0-2.36,4.7l.16.09,1,.57.89.47.8.41q0,.67.1,1.4C290.33,304.25,290.31,303.79,290.28,303.34Zm13.31-57.17,0,0,0,0,.05.09h0a.23.23,0,0,1,0,.07A.39.39,0,0,0,303.59,246.17Z" transform="translate(-53 -50.93)" fill="url(#fd1a872a-c2fb-4cd4-906a-a62e176bbce4)"/><path d="M321,235.93s-3.61,16.22,6.31,24.79S303.88,276,298,268.83,302.08,258,302.08,258s5-4.06,0-16.22Z" transform="translate(-53 -50.93)" fill="#e0a17e"/><path d="M330,308.34a60.5,60.5,0,0,1-10.75,1.31h-.55l-1.43,0A60.59,60.59,0,0,1,303.11,308l-.87-.21q-3.06-.8-6-1.86l-1-15,4.34-20.77,2.55-12.24.72-3.42.73,1,.16.22.2.26,8,10.65,8.19-8.82.42-.46,2.25-2.43.85-.91.4,3.09,1.44,11.11,2.67,20.49Z" transform="translate(-53 -50.93)" fill="#f0f1f5"/><path d="M352.32,298.56c-.69.49-1.39,1-2.1,1.42l-.49.31-1.05.65a5.33,5.33,0,0,1-.48.27,3.21,3.21,0,0,1-.41.25A16.08,16.08,0,0,1,343,294.4a11,11,0,0,1-.3-1.06,1,1,0,0,1,0-.17l-.57,1.5L340.38,299s.52,2.12,1.45,5.48q-.49.23-1,.42a59.06,59.06,0,0,1-10.83,3.4,60.5,60.5,0,0,1-10.75,1.31h-.55a99.44,99.44,0,0,1-.53-14l1.32-25.17.67-12.7.37-7s.13.14.38.37.42.4.72.67h0a27,27,0,0,0,16,6.61,10.62,10.62,0,0,1,8.32,4.42,19.59,19.59,0,0,1,3.39,8.65l.3,2.75s0,0,0,0l.08.78.11,1Z" transform="translate(-53 -50.93)" opacity="0.1"/><path d="M352.82,298.2l-.5.37c-.69.49-1.39,1-2.1,1.42l-.49.31-1.05.65a16.58,16.58,0,0,1-5.18-7.22v0a2.77,2.77,0,0,1-.12-.36c-.11-.35-.21-.72-.29-1.08l-.41,1.07-.56,1.45-1.28,3.34s.59,2.4,1.63,6.1c-.21.1-.41.2-.63.28s-.65.29-1,.42a59.06,59.06,0,0,1-10.83,3.4,60.5,60.5,0,0,1-10.75,1.31,99.49,99.49,0,0,1-.63-14.92l1.28-24.39.68-13,.33-6.13.06-1.27a2,2,0,0,0,.17.17,27.09,27.09,0,0,0,17,7.49,10.62,10.62,0,0,1,8.24,4.31,19.54,19.54,0,0,1,3.48,8.76l.53,4.93v.07h0l.11,1Z" transform="translate(-53 -50.93)" fill="#06006a"/><path d="M304.2,253l0,.61-.16,2.32-.56,7.94s-.33,2.29-.57,7.45c-.35,6.8-.56,18.58.25,36.7l-.87-.21q-3.06-.8-6-1.86c-1.19-.44-2.37-.92-3.52-1.43-.29-.13-.57-.25-.86-.39-.29-4-.64-6.45-.64-6.45s-.27.34-.68,1c-.17.27-.38.6-.6,1l-.05.09h0q-.29.5-.62,1.14c-.25.5-.5,1-.74,1.63l-1-.57-.16-.09a60.93,60.93,0,0,1-11.78-8.71c1.61-5.67,3-11.37,3.5-12.1a34.76,34.76,0,0,0,4.25-9.27,15.71,15.71,0,0,1,9-10A36.5,36.5,0,0,0,304.18,253a0,0,0,0,1,0,0A0,0,0,0,0,304.2,253Z" transform="translate(-53 -50.93)" opacity="0.1"/><path d="M304.21,252.72a54.08,54.08,0,0,1-12.81,8.07,15.71,15.71,0,0,0-9,10,34.76,34.76,0,0,1-4.25,9.27c-.49.73-1.89,6.44-3.5,12.12.29.3.6.59.9.88a60.93,60.93,0,0,0,11.78,8.71l.16.09a22.88,22.88,0,0,1,2.2-4.24l.05-.08c.35-.52.57-.8.57-.8s.09.66.22,1.85.3,3,.46,5.1l.87.39c.28.14.56.26.86.39,1.15.51,2.33,1,3.52,1.43q2.91,1.07,6,1.86c-.82-17.94-.64-29.76-.31-36.73.26-5.62.61-8.11.61-8.11l1.27-7.3.36-2.06.17-1Z" transform="translate(-53 -50.93)" fill="#06006a"/><path d="M310.64,251.71a14.81,14.81,0,0,1-6.49-1.49,29.17,29.17,0,0,0-2.07-7.53L321,236.84a36.22,36.22,0,0,0-.39,11A14.82,14.82,0,0,1,310.64,251.71Z" transform="translate(-53 -50.93)" opacity="0.1"/><circle cx="257.64" cy="185.01" r="14.87" fill="#e0a17e"/><g opacity="0.1"><path d="M340.86,304.94c-1.17-4.11-1.82-6.81-1.82-6.81l2.25-5.86a12.65,12.65,0,0,0,.77,2.4l.05.13-1.28,3.34s.59,2.4,1.63,6.1c-.21.1-.41.2-.63.28S341.18,304.81,340.86,304.94Z" transform="translate(-53 -50.93)"/></g><path d="M358.41,276.94s-1.35-13.07,0-19.38-15.77.9-12.17,9.46a73.58,73.58,0,0,0,7.21,13.52Z" transform="translate(-53 -50.93)" fill="#e0a17e"/><path d="M363.29,288.6a61.05,61.05,0,0,1-10.47,9.59l-.5.37c-.69.49-1.39,1-2.1,1.42a42.26,42.26,0,0,1-4.3-6.13l-.13-.23,3.61-18.93.38.39c.16.15.37.35.62.55h0l.05,0c1.87,1.6,5.82,4,7.72-1.58a16.85,16.85,0,0,0,.69-3l.37,1.38h0l.22.81,4,15.09h0Z" transform="translate(-53 -50.93)" opacity="0.1"/><path d="M363.29,288.6a61,61,0,0,1-10.47,9.59l-.5.37c-.69.49-1.39,1-2.1,1.42l-.49.31a43.62,43.62,0,0,1-3.94-5.78l.13-.67,3.48-18.26s.18.21.49.5l.62.55c.26.22.56.46.89.68a0,0,0,0,1,0,0c2.07,1.42,5.22,2.49,6.82-2.5a16.89,16.89,0,0,0,.64-2.84l.46,1.7Z" transform="translate(-53 -50.93)" fill="#06006a"/><path d="M363.29,288.6a61,61,0,0,1-10.47,9.59l-.5.37c-.69.49-1.39,1-2.1,1.42l-.49.31a43.62,43.62,0,0,1-3.94-5.78l.13-.67,3.48-18.26s.18.21.49.5l.62.55c.26.22.56.46.89.68a0,0,0,0,1,0,0c2.07,1.42,5.22,2.49,6.82-2.5a16.89,16.89,0,0,0,.64-2.84l.46,1.7Z" transform="translate(-53 -50.93)" opacity="0.02"/><path d="M289.79,297.58l-.05.08c0-.05,0-.11,0-.15.63-2.19,1.2-3.67,1.71-4.11,0,0,.67,4.45,1.27,11.12-.29-.13-.57-.25-.86-.39l-.87-.39c-.15-2.15-.31-3.9-.46-5.1s-.22-1.85-.22-1.85S290.14,297.06,289.79,297.58Z" transform="translate(-53 -50.93)" opacity="0.1"/><path d="M310.82,231.84a4.08,4.08,0,0,1,2.55-.46,2.91,2.91,0,0,1,1,.7c1.17,1.11,2.33,2.4,3.91,2.74a7.56,7.56,0,0,0,2.93-.13,14,14,0,0,0,4.82-1.47c3.35-2,4.42-6.33,4.63-10.22.07-1.31-.2-3-1.49-3.28-1.64-.35-2.84,2.14-4.5,1.87a2.51,2.51,0,0,1-1.3-.79c-1.13-1.13-1.9-2.58-3-3.72a10.31,10.31,0,0,0-6.44-2.76,24.08,24.08,0,0,0-7.09.67,11.65,11.65,0,0,0-3.65,1.25,4.39,4.39,0,0,0-2.2,3c-.11.87.12,1.77-.05,2.63a4.42,4.42,0,0,1-2.24,2.71c-1,.62-2.18,1-3.16,1.76a8.37,8.37,0,0,0-3.05,4.86,16.46,16.46,0,0,0-.16,5.83,32.28,32.28,0,0,0,2.78,9.72,13.77,13.77,0,0,0,1.81,3,16.81,16.81,0,0,0,3.65,3,2.22,2.22,0,0,0,1.83.55,1.59,1.59,0,0,0,.51-.3c1.28-1.07,1.4-3,1-4.63s-1.08-3.18-1.16-4.84a2.33,2.33,0,0,1,.26-1.35,6,6,0,0,1,.9-.91,5.44,5.44,0,0,0,1-1.69,16.53,16.53,0,0,0,1.55-4.86,6.55,6.55,0,0,0-.87-4A5.17,5.17,0,0,0,310.82,231.84Z" transform="translate(-53 -50.93)" opacity="0.1"/><path d="M310.82,231.32a4.08,4.08,0,0,1,2.55-.46,2.91,2.91,0,0,1,1,.7c1.17,1.11,2.33,2.4,3.91,2.74a7.56,7.56,0,0,0,2.93-.13,14,14,0,0,0,4.82-1.47c3.35-2,4.42-6.33,4.63-10.22.07-1.31-.2-3-1.49-3.28-1.64-.35-2.84,2.14-4.5,1.87a2.51,2.51,0,0,1-1.3-.79c-1.13-1.13-1.9-2.58-3-3.72a10.31,10.31,0,0,0-6.44-2.76,24.08,24.08,0,0,0-7.09.67,11.65,11.65,0,0,0-3.65,1.25,4.39,4.39,0,0,0-2.2,3c-.11.87.12,1.77-.05,2.63a4.42,4.42,0,0,1-2.24,2.71c-1,.62-2.18,1-3.16,1.76a8.37,8.37,0,0,0-3.05,4.86,16.46,16.46,0,0,0-.16,5.83,32.28,32.28,0,0,0,2.78,9.72,13.77,13.77,0,0,0,1.81,3,16.81,16.81,0,0,0,3.65,3,2.22,2.22,0,0,0,1.83.55,1.59,1.59,0,0,0,.51-.3c1.28-1.07,1.4-3,1-4.63s-1.08-3.18-1.16-4.84a2.33,2.33,0,0,1,.26-1.35,6,6,0,0,1,.9-.91,5.44,5.44,0,0,0,1-1.69,16.53,16.53,0,0,0,1.55-4.86,6.55,6.55,0,0,0-.87-4A5.17,5.17,0,0,0,310.82,231.32Z" transform="translate(-53 -50.93)" fill="#463e3b"/><rect x="430.12" y="472.81" width="209.17" height="121.39" fill="#dde1ec"/></svg>