<svg xmlns="http://www.w3.org/2000/svg" xmlns:xlink="http://www.w3.org/1999/xlink" id="eb784e0d-05db-44e6-8395-40b319063039" data-name="Layer 1" width="1094" height="798.15" viewBox="0 0 1094 798.15"><defs><linearGradient id="b86fccb4-da21-4a09-8d3b-ff994f3aa5aa" x1="639.03" y1="672.43" x2="639.03" y2="50.93" gradientUnits="userSpaceOnUse"><stop offset="0" stop-color="gray" stop-opacity="0.25"/><stop offset="0.54" stop-color="gray" stop-opacity="0.12"/><stop offset="1" stop-color="gray" stop-opacity="0.1"/></linearGradient><linearGradient id="d2adb5db-d5c7-49ab-bfdd-50ec6aa449ae" x1="319.12" y1="309.68" x2="319.12" y2="212.15" xlink:href="#b86fccb4-da21-4a09-8d3b-ff994f3aa5aa"/><linearGradient id="fd1a872a-c2fb-4cd4-906a-a62e176bbce4" x1="332.56" y1="304.74" x2="332.56" y2="246.12" gradientTransform="matrix(-1, 0, 0, 1, 652, 0)" xlink:href="#b86fccb4-da21-4a09-8d3b-ff994f3aa5aa"/><linearGradient id="636ac3f3-8a9d-4cd8-9529-d45e35aeb867" x1="803.65" y1="796.85" x2="803.65" y2="184.5" xlink:href="#b86fccb4-da21-4a09-8d3b-ff994f3aa5aa"/></defs><title>wall post</title><g opacity="1"><path d="M119.37,170.3c10.2,17.75,4.55,40.79-6.53,58S86,259.17,73.72,275.59C49.31,308.35,43,360.08,73.78,387c6.63,5.8,14.83,10.39,18.87,18.21C98.23,416,94.1,429,89.89,440.43l-.35.94C73.63,484.5,97.07,532.3,141,545.83c24.31,7.49,46.25,19.63,62.49,39.26,14.19,17.16,22.39,38.33,31.75,58.53C252.16,680.11,274,715,304.18,741.57s69.56,44.18,109.76,42.73c91.82-3.31,159.43-100,251.16-105.09,6.61-.37,13.65-.12,19.18,3.52,7.8,5.14,10.19,15.23,13.47,24,17.37,46.43,69.67,67.83,116.5,84.09l88,30.58c47.8,16.6,98,33.45,148,25.76s98.82-48.75,96.65-99.31c-1.78-41.53-36.2-78.08-31.69-119.41,3.12-28.56,24.51-52.55,28.09-81.06,3.73-29.67-12.49-58.16-31.16-81.52-53.72-67.24-130.28-111.56-205-154.31-52.63-30.12-105.53-60.36-162.19-82-139.68-53.21-293.2-50.92-442-65.44-25.59-2.5-52.34-5.44-75.79-16.75-18-8.68-32.07-28.75-51.82-33-15.05-3.24-37.31,3.45-50.45,10.76C100.94,138.54,107.54,149.71,119.37,170.3Z" transform="translate(-53 -50.93)" fill="#f9ebd3" style="&#10;"/></g><g opacity="1"><path xmlns="http://www.w3.org/2000/svg" d="M1065.12,110.81V637.54a27.64,27.64,0,0,1-27.64,27.64H240.89a27.64,27.64,0,0,1-27.64-27.64V110.81Z" transform="translate(-53 -50.93)" fill="#fefbf8" style="&#10;"/></g><path d="M421.34,382.3V665.17H240.89c-15.26,0-27.64-12.62-27.64-28.18V382.3Z" transform="translate(-53 -50.93)" fill="#fcdea6"/><rect x="430.12" y="124.37" width="346.82" height="9.75" fill="#dde1ec"/><rect x="430.12" y="193.73" width="209.17" height="9.75" fill="#dde1ec"/><rect x="685.9" y="193.73" width="70.45" height="9.75" fill="#dde1ec"/><rect x="685.9" y="284.77" width="70.45" height="9.75" fill="#dde1ec"/><rect x="685.9" y="375.81" width="70.45" height="9.75" fill="#dde1ec"/><rect x="685.9" y="224.08" width="70.45" height="9.75" fill="#dde1ec"/><rect x="685.9" y="254.42" width="70.45" height="9.75" fill="#dde1ec"/><rect x="430.12" y="224.08" width="209.17" height="9.75" fill="#dde1ec"/><rect x="430.12" y="254.42" width="209.17" height="9.75" fill="#dde1ec"/><rect x="430.12" y="284.77" width="209.17" height="9.75" fill="#dde1ec"/><rect x="430.12" y="315.12" width="209.17" height="9.75" fill="#dde1ec"/><rect x="430.12" y="345.46" width="209.17" height="9.75" fill="#dde1ec"/><rect x="430.12" y="375.81" width="209.17" height="9.75" fill="#dde1ec"/><rect x="430.12" y="406.16" width="209.17" height="9.75" fill="#dde1ec"/><rect x="160.25" y="59.34" width="208.09" height="277.45" fill="#fcdea6"/><path d="M1065.12,82.63A27.64,27.64,0,0,0,1037.48,55H240.89a27.64,27.64,0,0,0-27.64,27.64v31.43h851.87Z" transform="translate(-53 -50.93)" fill="#ffbe00"/><circle cx="193.85" cy="33.33" r="10.84" fill="#f9ebd3"/><circle cx="229.61" cy="33.33" r="10.84" fill="#f9ebd3"/><circle cx="265.38" cy="33.33" r="10.84" fill="#f9ebd3" style="&#10;"/></svg>