<svg xmlns="http://www.w3.org/2000/svg" xmlns:xlink="http://www.w3.org/1999/xlink" id="03030b4a-9996-4111-83fa-29dc66776d7b" data-name="Layer 1" width="1000.79" height="738.83" viewBox="0 0 1000.79 738.83"><defs><linearGradient id="c172ced9-c526-43de-8081-a3b8b4d2db3a" x1="534.54" y1="548.83" x2="534.54" y2="87.83" gradientUnits="userSpaceOnUse"><stop offset="0" stop-color="gray" stop-opacity="0.25"/><stop offset="0.54" stop-color="gray" stop-opacity="0.12"/><stop offset="1" stop-color="gray" stop-opacity="0.1"/></linearGradient><linearGradient id="b55b1914-9010-4651-994a-27bfb9322cf9" x1="1028.82" y1="815.41" x2="1028.82" y2="407.41" xlink:href="#c172ced9-c526-43de-8081-a3b8b4d2db3a"/><linearGradient id="f578ae08-57d5-484c-bc58-a6933ab5fa51" x1="799.21" y1="589.03" x2="799.21" y2="340.83" xlink:href="#c172ced9-c526-43de-8081-a3b8b4d2db3a"/><linearGradient id="c6440606-d3b5-4d29-adcc-566625c77aaa" x1="2225.35" y1="817.55" x2="2225.35" y2="423.13" gradientTransform="translate(-1556)" xlink:href="#c172ced9-c526-43de-8081-a3b8b4d2db3a"/></defs><title>roganize resume</title><rect x="171.97" y="92.7" width="725.15" height="35.21" fill="#f6f7f9"/><g opacity="1"><rect x="171.97" y="92.7" width="725.15" height="35.21" fill="#ffbe00"/></g><g opacity="0.15"><rect xmlns="http://www.w3.org/2000/svg" x="171.97" y="127.91" width="725.15" height="416.05" fill="#f9ebd3"/></g><circle cx="189.36" cy="110.09" r="7.83" fill="#f6f7f9"/><circle cx="210.22" cy="110.09" r="7.83" fill="#f6f7f9"/><circle cx="231.09" cy="110.09" r="7.83" fill="#f6f7f9"/><g opacity="1"><rect x="197.18" y="179.65" width="373.01" height="26.95" fill="#fcdea6"/></g><g opacity="1"><rect x="665.83" y="179.65" width="195.63" height="26.95" fill="#fcdea6"/></g><g opacity="1"><rect x="269.78" y="434.41" width="26.08" height="86.08" fill="#fcdea6"/><rect x="320.21" y="372.67" width="26.08" height="147.81" fill="#fcdea6"/><rect x="370.64" y="310.94" width="26.08" height="209.54" fill="#fcdea6"/><rect x="421.07" y="330.94" width="26.08" height="189.55" fill="#fcdea6"/><rect x="471.5" y="390.06" width="26.08" height="130.42" fill="#fcdea6"/></g><g opacity="1"><rect x="665.4" y="265.73" width="195.63" height="240.41" fill="#fcdea6"/></g><rect x="701.4" y="344.73" width="195.63" height="240.41" fill="#06006a"/><rect x="714.54" y="365.83" width="40" height="40" fill="#ffffff"/><rect x="734.54" y="429.83" width="142" height="8" fill="#ffffff"/><rect x="734.54" y="446.83" width="142" height="8" fill="#ffffff"/><rect x="734.54" y="463.83" width="142" height="8" fill="#ffffff"/><rect x="734.54" y="480.83" width="142" height="8" fill="#ffffff"/><rect x="734.54" y="497.83" width="142" height="8" fill="#ffffff"/><rect x="734.54" y="514.83" width="142" height="8" fill="#ffffff"/></svg>